<svg width="202" height="40" viewBox="0 0 202 40" fill="none" xmlns="http://www.w3.org/2000/svg">
<g clip-path="url(#clip0_261_4578)">
<path fill-rule="evenodd" clip-rule="evenodd" d="M55.0724 13.791C53.0514 8.095 48.3391 6.086 42.5675 6.086C39.5395 6.086 36.7005 6.756 34.2946 8.765C31.9379 10.727 30.735 13.407 30.735 16.469C30.735 23.648 36.5065 25.371 42.3746 26.568C44.3916 26.996 48.1451 27.525 48.1451 30.254C48.1451 32.98 45.2136 33.795 43.0007 33.795C39.5868 33.795 37.0874 32.597 36.1246 29.151L29.0024 30.778C30.4968 37.192 36.1246 39.874 42.3263 39.874C45.6468 39.874 49.2516 39.252 51.8947 37.192C54.4483 35.228 55.986 32.167 55.986 28.96C55.986 25.708 54.3479 22.98 51.6565 21.209C49.3471 19.677 45.7402 19.006 43.0499 18.433C41.1716 18.095 38.2853 17.522 38.2853 15.133C38.2853 12.594 40.7877 12.066 42.855 12.066C45.7875 12.066 47.5683 13.168 48.5311 15.944L55.0724 13.791ZM80.5616 39.394C80.1757 38.199 80.0792 37 80.0792 35.756V24.414C80.0792 21.496 80.3204 18.815 77.8211 16.806C75.8443 15.179 72.5761 14.603 70.0787 14.603C64.9312 14.603 59.1607 16.328 58.4401 22.212L65.1232 22.836C65.1232 20.443 67.096 19.293 69.3531 19.293C70.4134 19.293 71.6153 19.629 72.2414 20.443C72.964 21.351 72.8655 22.594 72.8655 23.648V24.221C69.8838 24.51 65.9885 24.7 63.2017 25.754C59.9797 26.95 57.7175 29.394 57.7175 32.98C57.7175 37.576 61.0822 39.874 65.4116 39.874C69.0687 39.874 71.1812 38.484 73.2052 35.613C73.156 36.858 73.2514 38.148 73.5409 39.394H80.5616ZM72.8655 28.721C72.8655 30.449 72.9158 31.88 71.9058 33.412C71.0867 34.658 69.7883 35.422 68.3451 35.422C66.3754 35.422 65.2207 34.129 65.2207 32.216C65.2207 28.673 70.1712 28.053 72.8655 27.763V28.721ZM91.145 25.708C91.145 23.124 91.6224 19.438 95.0383 19.438C98.9356 19.438 98.9356 24.51 98.9356 27.238C98.9356 29.869 98.9356 34.942 94.9428 34.942C93.6434 34.942 92.6324 34.322 91.9611 33.267C91.1912 32.074 91.145 30.539 91.145 29.201V25.708ZM83.9765 39.394H87.8226C88.2567 38.102 88.5462 36.712 89.4094 35.661C91.1912 38.58 92.8746 39.874 96.385 39.874C103.741 39.874 106.291 33.602 106.291 27.238C106.291 21.496 104.176 14.603 97.202 14.603C94.4594 14.603 92.4424 15.752 91.2375 18.146H91.0475V6.564H83.9765V39.394ZM130.579 39.394C130.192 38.199 130.101 37 130.101 35.756V24.414C130.101 21.496 130.34 18.815 127.835 16.806C125.867 15.179 122.595 14.603 120.094 14.603C114.95 14.603 109.176 16.328 108.457 22.212L115.141 22.836C115.141 20.443 117.112 19.293 119.373 19.293C120.432 19.293 121.632 19.629 122.259 20.443C122.98 21.351 122.887 23.167 122.887 24.221C119.903 24.51 116.008 24.7 113.216 25.754C109.994 26.95 107.731 29.394 107.731 32.98C107.731 37.576 111.1 39.874 115.428 39.874C119.083 39.874 121.2 38.484 123.223 35.613C123.174 36.858 123.267 38.148 123.558 39.394H130.579ZM122.887 27.763C122.887 29.491 122.933 31.88 121.923 33.412C121.104 34.658 119.805 35.422 118.365 35.422C116.391 35.422 115.237 34.129 115.237 32.216C115.237 28.673 120.189 28.053 122.887 27.763ZM154.866 39.394V6.564H147.797V17.667C146.256 15.417 144.433 14.603 141.688 14.603C134.57 14.603 132.743 21.735 132.743 27.525C132.743 33.172 134.665 39.874 141.544 39.874C144.67 39.874 146.786 38.199 148.135 35.613V39.394H154.866ZM147.797 29.249C147.797 30.449 147.748 31.738 147.172 32.838C146.594 33.936 145.393 34.8 144.095 34.8C140.582 34.8 140.197 30.349 140.197 27.716C140.197 24.796 140.344 19.532 144.381 19.532C147.605 19.532 147.797 23.552 147.797 25.899V29.249ZM180.84 28.433C180.888 25.132 180.358 21.687 178.338 18.912C176.315 16.136 172.806 14.603 169.391 14.603C161.79 14.603 157.514 20.394 157.514 27.573C157.514 34.8 162.273 39.874 169.581 39.874C177.855 39.874 180.692 32.694 180.692 31.496L174.149 31.019C174.149 33.267 171.989 34.847 169.825 34.847C166.747 34.847 165.11 32.503 165.11 29.63L165.158 28.433H180.84ZM165.11 24.271C165.353 21.496 166.553 19.196 169.68 19.196C172.758 19.196 173.624 21.637 173.767 24.271H165.11ZM183.965 39.394H191.033V6.564H183.965V39.394ZM194.545 39.394H201.612V6.564H194.545V39.394Z" fill="black"/>
<path fill-rule="evenodd" clip-rule="evenodd" d="M13.7062 0.0583C20.9319 0.0583 26.796 5.8883 26.796 13.0813C26.796 20.2753 20.9319 26.1053 13.7062 26.1053C6.47738 26.1053 0.617371 20.2753 0.617371 13.0813C0.617371 5.8883 6.47738 0.0583 13.7062 0.0583ZM14.4257 6.5643H8.56974V19.5883L14.6533 19.5881C15.723 19.5852 16.8941 19.5414 17.7823 18.8853C18.6999 18.2223 19.3883 17.2123 19.3883 16.0743C19.3883 14.3863 18.2798 13.1523 16.6588 12.8283V12.7923C18.0316 12.4503 19.0245 11.4623 19.0245 9.9843C19.0245 8.7483 18.4697 7.8003 17.4216 7.1333C16.5251 6.5643 15.4578 6.5643 14.4257 6.5643ZM13.8735 14.044C14.3689 14.044 14.979 14.044 15.4171 14.292C15.8573 14.537 16.1638 15.048 16.1638 15.544C16.1638 16.075 15.9166 16.606 15.4754 16.891C14.9991 17.212 14.2936 17.177 13.7398 17.177H11.6213V14.044H13.8735ZM13.4718 8.8783C13.9884 8.8783 14.7913 8.8223 15.2265 9.0703C15.6496 9.3173 15.8777 9.7723 15.8777 10.2493C15.8777 10.6873 15.6848 11.1593 15.323 11.4243C14.8667 11.7663 14.2366 11.7273 13.703 11.7273H11.6206V8.8783H13.4718Z" fill="#006DFF"/>
</g>
<defs>
<clipPath id="clip0_261_4578">
<rect width="202" height="40" fill="white"/>
</clipPath>
</defs>
</svg>
